<?xml version="1.0" encoding="utf-8"?>
<!-- Generator: Adobe Illustrator 16.0.0, SVG Export Plug-In . SVG Version: 6.00 Build 0)  -->
<!DOCTYPE svg PUBLIC "-//W3C//DTD SVG 1.1//EN" "http://www.w3.org/Graphics/SVG/1.1/DTD/svg11.dtd">
<svg version="1.1" id="Layer_1" xmlns="http://www.w3.org/2000/svg" xmlns:xlink="http://www.w3.org/1999/xlink" x="0px" y="0px"
	 width="150px" height="148px" viewBox="0 0 150 148" enable-background="new 0 0 150 148" xml:space="preserve">
<g>
	<g>
		<g>
			<g>
				<path fill="#58595B" d="M127.119,117.188H21.343C10.147,117.188,1,108.03,1,96.846V31.745c0-11.185,9.147-20.343,20.343-20.343
					h105.776c11.195,0,20.342,9.158,20.342,20.343v65.101C147.461,108.03,138.82,117.188,127.119,117.188z M21.343,19.542
					c-6.616,0-12.208,5.593-12.208,12.203v65.101c0,6.61,5.592,12.203,12.208,12.203h105.776c6.613,0,12.207-5.593,12.207-12.203
					V31.745c0-6.61-5.594-12.203-12.207-12.203H21.343z"/>
			</g>
			<g>
				<g>
					<polygon fill="#58595B" points="86.939,138.678 78.746,114.068 86.463,111.496 94.668,136.105 					"/>
				</g>
				<g>
					<polygon fill="#58595B" points="62.098,138.986 54.37,136.409 62.584,111.805 70.303,114.382 					"/>
				</g>
			</g>
			<g>
				<path fill="#58595B" d="M127.119,100.913H21.343c-2.543,0-4.073-1.523-4.073-4.067V31.745c0-2.542,1.53-4.068,4.073-4.068
					h105.776c2.543,0,4.072,1.525,4.072,4.068v65.101C131.191,99.39,129.662,100.913,127.119,100.913z M25.405,92.773h97.65V35.818
					h-97.65V92.773z"/>
			</g>
		</g>
		<g>
			<path fill="#58595B" d="M98.641,141.599H49.82c-2.542,0-4.072-1.525-4.072-4.067c0-2.543,1.53-4.073,4.072-4.073h48.821
				c2.543,0,4.072,1.53,4.072,4.073C102.713,140.073,101.184,141.599,98.641,141.599z"/>
		</g>
	</g>
</g>
</svg>
